<svg xmlns="http://www.w3.org/2000/svg" viewBox="7798.158 25.82 23.342 18.129">
  <defs>
    <style>
      .cls-1 {
        fill: none;
        stroke: #a7f4d6;
      }
    </style>
  </defs>
  <g id="Group_34" data-name="Group 34" transform="translate(7798.658 26.32)">
    <path id="Path_4" data-name="Path 4" class="cls-1" d="M20.754,7.434,27.665.223A2.158,2.158,0,0,0,26.729,0H8.836A2.1,2.1,0,0,0,7.9.223l6.911,7.211A4.078,4.078,0,0,0,20.754,7.434Z" transform="translate(-6.603 0)"/>
    <path id="Path_5" data-name="Path 5" class="cls-1" d="M14.955,16.02a5.2,5.2,0,0,1-7.568,0L.164,8.5A2.573,2.573,0,0,0,0,9.374v12.47a2.285,2.285,0,0,0,2.233,2.33H20.11a2.285,2.285,0,0,0,2.233-2.33V9.374a2.5,2.5,0,0,0-.164-.874Z" transform="translate(0 -7.044)"/>
  </g>
</svg>
