<?xml version="1.0" encoding="UTF-8" standalone="no"?>
<svg width="88px" height="19px" viewBox="0 0 88 19" version="1.1" xmlns="http://www.w3.org/2000/svg" xmlns:xlink="http://www.w3.org/1999/xlink">
    <!-- Generator: Sketch 45 (43475) - http://www.bohemiancoding.com/sketch -->
    <title>Logo</title>
    <desc>Created with Sketch.</desc>
    <defs></defs>
    <g id="Page-2" stroke="none" stroke-width="1" fill="none" fill-rule="evenodd">
        <g id="Analysis-Results-Copy-2" transform="translate(-74.000000, -24.000000)" fill="#FFFFFF">
            <g id="Logo" transform="translate(74.000000, 24.000000)">
                <path d="M10.0005242,11.6110176 L3.05780443,11.6110176 L3.05780443,16.6354977 L11.1122313,16.6354977 L11.1122313,18.749921 L0.409325775,18.749921 L0.409325775,2.88084723 L11.0359377,2.88084723 L11.0359377,5.00616961 L3.05780443,5.00616961 L3.05780443,9.48569523 L10.0005242,9.48569523 L10.0005242,11.6110176 Z M17.3518291,16.8643786 C17.9985117,16.8643786 18.5434607,16.6736464 18.9866925,16.2921764 C19.4299243,15.9107063 19.6515369,15.4329677 19.6515369,14.8589462 L22.0493365,14.8589462 L22.0711347,14.9243407 C22.1074652,16.0287872 21.6587905,16.9806315 20.7250972,17.779902 C19.7914039,18.5791726 18.6669925,18.9788018 17.3518291,18.9788018 C15.6152323,18.9788018 14.2837402,18.4193209 13.357313,17.3003421 C12.4308858,16.1813634 11.9676791,14.764496 11.9676791,13.0496974 L11.9676791,12.6682292 C11.9676791,10.9606967 12.4308858,9.54564583 13.357313,8.42303404 C14.2837402,7.30042225 15.6152323,6.73912477 17.3518291,6.73912477 C18.7687178,6.73912477 19.9185602,7.15146952 20.8013908,7.97617139 C21.6842215,8.80087325 22.1110982,9.84899184 22.0820338,11.1205586 L22.0602356,11.1859531 L19.6515369,11.1859531 C19.6515369,10.5392706 19.4390068,9.99068861 19.0139402,9.54019067 C18.5888736,9.08969274 18.0348421,8.86444715 17.3518291,8.86444715 C16.356374,8.86444715 15.6515733,9.22592999 15.2374059,9.94890652 C14.8232384,10.671883 14.6161578,11.5783149 14.6161578,12.6682292 L14.6161578,13.0496974 C14.6161578,14.16141 14.8232384,15.0751078 15.2374059,15.7908183 C15.6515733,16.5065287 16.356374,16.8643786 17.3518291,16.8643786 Z M26.4578874,8.48297903 C26.8502566,7.93075576 27.3279952,7.50206254 27.8911176,7.19688652 C28.4542401,6.8917105 29.0772984,6.73912477 29.7603114,6.73912477 C31.0100799,6.73912477 31.9855386,7.13330456 32.6867169,7.92167594 C33.3878951,8.71004733 33.738479,9.92528361 33.738479,11.5674212 L33.738479,18.749921 L31.0900003,18.749921 L31.0900003,11.5456231 C31.0900003,10.6155628 30.9047176,9.94345904 30.5341468,9.52929159 C30.1635759,9.11512413 29.6077279,8.90804351 28.8665861,8.90804351 C28.3506933,8.90804351 27.8874867,9.01521681 27.4769523,9.22956663 C27.0664179,9.44391646 26.726733,9.74000542 26.4578874,10.1178424 L26.4578874,18.749921 L23.8094088,18.749921 L23.8094088,1.74734197 L26.4578874,1.74734197 L26.4578874,8.48297903 Z M35.6402394,12.7445229 C35.6402394,10.9933938 36.1197945,9.55472842 37.0789191,8.42848359 C38.0525759,7.30223875 39.3713525,6.73912477 41.0352885,6.73912477 C42.7282888,6.73912477 44.0543313,7.30223875 45.013456,8.42848359 C45.9798467,9.54746233 46.4630348,10.9861277 46.4630348,12.7445229 L46.4630348,12.9734037 C46.4630348,14.7463311 45.9798467,16.1922625 45.013456,17.3112412 C44.0543313,18.4229539 42.7355548,18.9788018 41.0570866,18.9788018 C39.3713524,18.9788018 38.0453098,18.4193209 37.0789191,17.3003421 C36.1197945,16.1813634 35.6402394,14.739065 35.6402394,12.9734037 L35.6402394,12.7445229 Z M38.288718,12.9734037 C38.288718,14.1214469 38.5139636,15.0587592 38.9644615,15.7853687 C39.4076934,16.5047122 40.1052281,16.8643786 41.0570866,16.8643786 C41.9798808,16.8643786 42.6701495,16.5047122 43.1279136,15.7853687 C43.5929437,15.0587592 43.8254553,14.1214469 43.8254553,12.9734037 L43.8254553,12.7445229 C43.8254553,11.618278 43.5929437,10.6918647 43.1279136,9.96525515 C42.6701495,9.23137948 41.9726148,8.86444715 41.0352885,8.86444715 C40.1124943,8.86444715 39.4222256,9.23137948 38.9644615,9.96525515 C38.5139636,10.6991308 38.288718,11.6255441 38.288718,12.7445229 L38.288718,12.9734037 Z M52.6045409,14.5210744 L52.6045409,14.5428726 L52.61544,14.4883771 L55.7870749,2.88084723 L57.9014982,2.88084723 L61.1058304,14.5210744 L61.1167295,14.597368 L61.1276286,14.4883771 L63.6344191,2.88084723 L66.2393014,2.88084723 L62.4682165,18.749921 L60.0595178,18.749921 L56.8878829,7.36037285 L56.8224884,7.36037285 L53.6399544,18.749921 L51.2203566,18.749921 L47.4601708,2.88084723 L50.0650531,2.88084723 L52.6045409,14.5210744 Z M77.7431593,11.6110176 L70.8004395,11.6110176 L70.8004395,16.6354977 L78.8548663,16.6354977 L78.8548663,18.749921 L68.1519608,18.749921 L68.1519608,2.88084723 L78.7785727,2.88084723 L78.7785727,5.00616961 L70.8004395,5.00616961 L70.8004395,9.48569523 L77.7431593,9.48569523 L77.7431593,11.6110176 Z" id="EchoWE"></path>
                <path d="M81.3283751,3.51822596 C81.3283751,2.6026979 81.6291869,1.83105011 82.2308197,1.20325944 C82.8324524,0.575468766 83.5634106,0.261578138 84.4237164,0.261578138 C85.2811157,0.261578138 86.0106207,0.575468766 86.6122535,1.20325944 C87.2138862,1.83105011 87.5146981,2.6026979 87.5146981,3.51822596 C87.5146981,4.43666046 87.2131596,5.21121465 86.6100737,5.84191176 C86.0069877,6.47260887 85.2782092,6.78795269 84.4237164,6.78795269 C83.5634106,6.78795269 82.8324524,6.47260887 82.2308197,5.84191176 C81.6291869,5.21121465 81.3283751,4.43666046 81.3283751,3.51822596 Z M81.8602506,3.51822596 C81.8602506,4.28552567 82.109474,4.93147189 82.6079281,5.45608401 C83.1063823,5.98069612 83.711639,6.24299824 84.4237164,6.24299824 C85.1328873,6.24299824 85.7366908,5.98069612 86.235145,5.45608401 C86.7335992,4.93147189 86.9828225,4.28552567 86.9828225,3.51822596 C86.9828225,2.75383269 86.7335992,2.11079286 86.235145,1.58908719 C85.7366908,1.06738152 85.1328873,0.806532594 84.4237164,0.806532594 C83.7087326,0.806532594 83.1027493,1.06738152 82.6057483,1.58908719 C82.1087474,2.11079286 81.8602506,2.75383269 81.8602506,3.51822596 Z M83.7959289,3.84955827 L83.7959289,5.31875548 L83.1376239,5.31875548 L83.1376239,1.61306519 L84.3626815,1.61306519 C84.8015537,1.61306519 85.1474146,1.70970281 85.4002748,1.90298096 C85.6531349,2.0962591 85.7795631,2.37745279 85.7795631,2.74657045 C85.7795631,2.91805031 85.7352405,3.06918284 85.6465942,3.19997256 C85.5579478,3.33076228 85.4278867,3.44120528 85.2564068,3.53130487 C85.436606,3.61268514 85.5666671,3.73184732 85.6465942,3.88879499 C85.7265212,4.04574266 85.7664842,4.23320512 85.7664842,4.45118799 L85.7664842,4.69532759 C85.7664842,4.81449156 85.7715704,4.92130156 85.7817429,5.01576081 C85.7919154,5.11022005 85.8115336,5.18796611 85.840598,5.24900131 L85.840598,5.31875548 L85.1648544,5.31875548 C85.1386965,5.25772028 85.1227113,5.16834864 85.1168985,5.05063789 C85.1110856,4.93292714 85.1081792,4.81303836 85.1081792,4.69096795 L85.1081792,4.45554763 C85.1081792,4.24919051 85.0594971,4.09660479 84.9621314,3.99778588 C84.8647657,3.89896698 84.7056406,3.84955827 84.4847513,3.84955827 L83.7959289,3.84955827 Z M83.7959289,3.2653671 L84.4193567,3.2653671 C84.6169946,3.2653671 84.7841122,3.22104458 84.9207148,3.13239821 C85.0573174,3.04375184 85.1256177,2.91950347 85.1256177,2.75964936 C85.1256177,2.5503858 85.068943,2.40361287 84.9555919,2.31932616 C84.8422408,2.23503945 84.644606,2.19289673 84.3626815,2.19289673 L83.7959289,2.19289673 L83.7959289,3.2653671 Z" id="®"></path>
            </g>
        </g>
    </g>
</svg>